<mxfile host="app.diagrams.net" modified="2024-03-05T03:35:42.722Z" agent="Mozilla/5.0 (Macintosh; Intel Mac OS X 10.15; rv:123.0) Gecko/20100101 Firefox/123.0" etag="3nXbKWGKYaD8QejnZE8m" version="23.1.7" type="github">
  <diagram name="第 1 页" id="CGWi03XoWavPwL2nkUhi">
    <mxGraphModel dx="1306" dy="809" grid="1" gridSize="10" guides="1" tooltips="1" connect="1" arrows="1" fold="1" page="1" pageScale="1" pageWidth="827" pageHeight="1169" math="0" shadow="0">
      <root>
        <mxCell id="0" />
        <mxCell id="1" parent="0" />
        <mxCell id="Z7pt-hcxb_ayJmEow0XF-67" value="" style="rounded=0;whiteSpace=wrap;html=1;" vertex="1" parent="1">
          <mxGeometry x="350" y="790" width="1040" height="310" as="geometry" />
        </mxCell>
        <mxCell id="Z7pt-hcxb_ayJmEow0XF-66" value="" style="rounded=0;whiteSpace=wrap;html=1;" vertex="1" parent="1">
          <mxGeometry x="350" y="480" width="1040" height="310" as="geometry" />
        </mxCell>
        <mxCell id="ZbUqYRhIL1GnJiyihquY-16" value="" style="endArrow=classic;html=1;rounded=0;" parent="1" edge="1">
          <mxGeometry width="50" height="50" relative="1" as="geometry">
            <mxPoint x="40" y="440" as="sourcePoint" />
            <mxPoint x="1140" y="440" as="targetPoint" />
          </mxGeometry>
        </mxCell>
        <mxCell id="ZbUqYRhIL1GnJiyihquY-17" value="" style="endArrow=classic;html=1;rounded=0;" parent="1" edge="1">
          <mxGeometry width="50" height="50" relative="1" as="geometry">
            <mxPoint x="160" y="560" as="sourcePoint" />
            <mxPoint x="160" y="80" as="targetPoint" />
          </mxGeometry>
        </mxCell>
        <mxCell id="ZbUqYRhIL1GnJiyihquY-18" value="" style="curved=1;endArrow=classic;html=1;rounded=0;" parent="1" edge="1">
          <mxGeometry width="50" height="50" relative="1" as="geometry">
            <mxPoint x="160" y="440" as="sourcePoint" />
            <mxPoint x="1110" y="440" as="targetPoint" />
            <Array as="points">
              <mxPoint x="350" y="420" />
              <mxPoint x="410" y="210" />
              <mxPoint x="610" y="200" />
              <mxPoint x="670" y="100" />
              <mxPoint x="710" y="60" />
              <mxPoint x="780" y="50" />
              <mxPoint x="920" y="70" />
              <mxPoint x="970" y="100" />
              <mxPoint x="1000" y="120" />
              <mxPoint x="1020" y="140" />
            </Array>
          </mxGeometry>
        </mxCell>
        <mxCell id="ZbUqYRhIL1GnJiyihquY-19" value="" style="endArrow=none;html=1;rounded=0;" parent="1" edge="1">
          <mxGeometry width="50" height="50" relative="1" as="geometry">
            <mxPoint x="560" y="440" as="sourcePoint" />
            <mxPoint x="560" y="200" as="targetPoint" />
          </mxGeometry>
        </mxCell>
        <mxCell id="ZbUqYRhIL1GnJiyihquY-20" value="" style="curved=1;endArrow=classic;html=1;rounded=0;dashed=1;" parent="1" edge="1">
          <mxGeometry width="50" height="50" relative="1" as="geometry">
            <mxPoint x="560" y="200" as="sourcePoint" />
            <mxPoint x="1110" y="440" as="targetPoint" />
            <Array as="points">
              <mxPoint x="820" y="230" />
              <mxPoint x="820" y="340" />
            </Array>
          </mxGeometry>
        </mxCell>
        <mxCell id="Z7pt-hcxb_ayJmEow0XF-15" value="慢" style="ellipse;whiteSpace=wrap;html=1;aspect=fixed;fillColor=#d5e8d4;strokeColor=#82b366;" vertex="1" parent="1">
          <mxGeometry x="1470" y="1189" width="50" height="50" as="geometry" />
        </mxCell>
        <mxCell id="Z7pt-hcxb_ayJmEow0XF-16" value="快" style="ellipse;whiteSpace=wrap;html=1;aspect=fixed;fillColor=#ffe6cc;strokeColor=#d79b00;" vertex="1" parent="1">
          <mxGeometry x="1390" y="1169" width="50" height="50" as="geometry" />
        </mxCell>
        <mxCell id="Z7pt-hcxb_ayJmEow0XF-33" style="rounded=0;orthogonalLoop=1;jettySize=auto;html=1;exitX=1;exitY=0.5;exitDx=0;exitDy=0;entryX=0;entryY=0.5;entryDx=0;entryDy=0;" edge="1" parent="1" source="Z7pt-hcxb_ayJmEow0XF-34" target="Z7pt-hcxb_ayJmEow0XF-36">
          <mxGeometry relative="1" as="geometry" />
        </mxCell>
        <mxCell id="Z7pt-hcxb_ayJmEow0XF-34" value="开始" style="ellipse;whiteSpace=wrap;html=1;aspect=fixed;" vertex="1" parent="1">
          <mxGeometry x="700" y="500" width="50" height="50" as="geometry" />
        </mxCell>
        <mxCell id="Z7pt-hcxb_ayJmEow0XF-35" style="rounded=0;orthogonalLoop=1;jettySize=auto;html=1;exitX=1;exitY=0.5;exitDx=0;exitDy=0;" edge="1" parent="1" source="Z7pt-hcxb_ayJmEow0XF-36" target="Z7pt-hcxb_ayJmEow0XF-42">
          <mxGeometry relative="1" as="geometry">
            <mxPoint x="872.6776695296637" y="727.322330470336" as="targetPoint" />
          </mxGeometry>
        </mxCell>
        <mxCell id="Z7pt-hcxb_ayJmEow0XF-36" value="" style="ellipse;whiteSpace=wrap;html=1;aspect=fixed;" vertex="1" parent="1">
          <mxGeometry x="880" y="530" width="50" height="50" as="geometry" />
        </mxCell>
        <mxCell id="Z7pt-hcxb_ayJmEow0XF-41" style="rounded=0;orthogonalLoop=1;jettySize=auto;html=1;exitX=0.5;exitY=0;exitDx=0;exitDy=0;entryX=0;entryY=0.5;entryDx=0;entryDy=0;" edge="1" parent="1" source="Z7pt-hcxb_ayJmEow0XF-42" target="Z7pt-hcxb_ayJmEow0XF-34">
          <mxGeometry relative="1" as="geometry" />
        </mxCell>
        <mxCell id="Z7pt-hcxb_ayJmEow0XF-42" value="" style="ellipse;whiteSpace=wrap;html=1;aspect=fixed;" vertex="1" parent="1">
          <mxGeometry x="720" y="680" width="50" height="50" as="geometry" />
        </mxCell>
        <mxCell id="Z7pt-hcxb_ayJmEow0XF-44" value="一个环形链表快慢指针肯定从开始的点相遇" style="text;html=1;align=center;verticalAlign=middle;resizable=0;points=[];autosize=1;strokeColor=none;fillColor=none;" vertex="1" parent="1">
          <mxGeometry x="945" y="578" width="250" height="30" as="geometry" />
        </mxCell>
        <mxCell id="Z7pt-hcxb_ayJmEow0XF-45" style="rounded=0;orthogonalLoop=1;jettySize=auto;html=1;exitX=1;exitY=0.5;exitDx=0;exitDy=0;entryX=0;entryY=0.5;entryDx=0;entryDy=0;fillColor=#fff2cc;strokeColor=#d6b656;" edge="1" parent="1" source="Z7pt-hcxb_ayJmEow0XF-46" target="Z7pt-hcxb_ayJmEow0XF-48">
          <mxGeometry relative="1" as="geometry" />
        </mxCell>
        <mxCell id="Z7pt-hcxb_ayJmEow0XF-46" value="" style="ellipse;whiteSpace=wrap;html=1;aspect=fixed;fillColor=#fff2cc;strokeColor=#d6b656;" vertex="1" parent="1">
          <mxGeometry x="550" y="840" width="50" height="50" as="geometry" />
        </mxCell>
        <mxCell id="Z7pt-hcxb_ayJmEow0XF-47" style="rounded=0;orthogonalLoop=1;jettySize=auto;html=1;exitX=1;exitY=0.5;exitDx=0;exitDy=0;entryX=0;entryY=0;entryDx=0;entryDy=0;" edge="1" parent="1" source="Z7pt-hcxb_ayJmEow0XF-48" target="Z7pt-hcxb_ayJmEow0XF-50">
          <mxGeometry relative="1" as="geometry" />
        </mxCell>
        <mxCell id="Z7pt-hcxb_ayJmEow0XF-48" value="" style="ellipse;whiteSpace=wrap;html=1;aspect=fixed;" vertex="1" parent="1">
          <mxGeometry x="700" y="840" width="50" height="50" as="geometry" />
        </mxCell>
        <mxCell id="Z7pt-hcxb_ayJmEow0XF-49" style="rounded=0;orthogonalLoop=1;jettySize=auto;html=1;exitX=0.5;exitY=1;exitDx=0;exitDy=0;entryX=1;entryY=0.5;entryDx=0;entryDy=0;" edge="1" parent="1" source="Z7pt-hcxb_ayJmEow0XF-50" target="Z7pt-hcxb_ayJmEow0XF-52">
          <mxGeometry relative="1" as="geometry" />
        </mxCell>
        <mxCell id="Z7pt-hcxb_ayJmEow0XF-50" value="" style="ellipse;whiteSpace=wrap;html=1;aspect=fixed;" vertex="1" parent="1">
          <mxGeometry x="800" y="940" width="50" height="50" as="geometry" />
        </mxCell>
        <mxCell id="Z7pt-hcxb_ayJmEow0XF-51" style="rounded=0;orthogonalLoop=1;jettySize=auto;html=1;exitX=1;exitY=0;exitDx=0;exitDy=0;entryX=0;entryY=1;entryDx=0;entryDy=0;" edge="1" parent="1" source="Z7pt-hcxb_ayJmEow0XF-52" target="Z7pt-hcxb_ayJmEow0XF-48">
          <mxGeometry relative="1" as="geometry" />
        </mxCell>
        <mxCell id="Z7pt-hcxb_ayJmEow0XF-52" value="" style="ellipse;whiteSpace=wrap;html=1;aspect=fixed;" vertex="1" parent="1">
          <mxGeometry x="630" y="960" width="50" height="50" as="geometry" />
        </mxCell>
        <mxCell id="Z7pt-hcxb_ayJmEow0XF-53" style="rounded=0;orthogonalLoop=1;jettySize=auto;html=1;exitX=1;exitY=0.5;exitDx=0;exitDy=0;entryX=0;entryY=0.5;entryDx=0;entryDy=0;fillColor=#fff2cc;strokeColor=#d6b656;" edge="1" parent="1" source="Z7pt-hcxb_ayJmEow0XF-54" target="Z7pt-hcxb_ayJmEow0XF-46">
          <mxGeometry relative="1" as="geometry" />
        </mxCell>
        <mxCell id="Z7pt-hcxb_ayJmEow0XF-54" value="" style="ellipse;whiteSpace=wrap;html=1;aspect=fixed;fillColor=#fff2cc;strokeColor=#d6b656;" vertex="1" parent="1">
          <mxGeometry x="400" y="840" width="50" height="50" as="geometry" />
        </mxCell>
        <mxCell id="Z7pt-hcxb_ayJmEow0XF-55" style="rounded=0;orthogonalLoop=1;jettySize=auto;html=1;exitX=1;exitY=0.5;exitDx=0;exitDy=0;entryX=0;entryY=0.5;entryDx=0;entryDy=0;fillColor=#fff2cc;strokeColor=#d6b656;" edge="1" parent="1" source="Z7pt-hcxb_ayJmEow0XF-56" target="Z7pt-hcxb_ayJmEow0XF-58">
          <mxGeometry relative="1" as="geometry" />
        </mxCell>
        <mxCell id="Z7pt-hcxb_ayJmEow0XF-56" value="" style="ellipse;whiteSpace=wrap;html=1;aspect=fixed;fillColor=#fff2cc;strokeColor=#d6b656;" vertex="1" parent="1">
          <mxGeometry x="1110" y="950" width="50" height="50" as="geometry" />
        </mxCell>
        <mxCell id="Z7pt-hcxb_ayJmEow0XF-57" style="rounded=0;orthogonalLoop=1;jettySize=auto;html=1;exitX=1;exitY=0.5;exitDx=0;exitDy=0;entryX=0;entryY=0;entryDx=0;entryDy=0;" edge="1" parent="1" source="Z7pt-hcxb_ayJmEow0XF-58" target="Z7pt-hcxb_ayJmEow0XF-60">
          <mxGeometry relative="1" as="geometry" />
        </mxCell>
        <mxCell id="Z7pt-hcxb_ayJmEow0XF-58" value="" style="ellipse;whiteSpace=wrap;html=1;aspect=fixed;" vertex="1" parent="1">
          <mxGeometry x="1190" y="840" width="50" height="50" as="geometry" />
        </mxCell>
        <mxCell id="Z7pt-hcxb_ayJmEow0XF-59" style="rounded=0;orthogonalLoop=1;jettySize=auto;html=1;exitX=0.5;exitY=1;exitDx=0;exitDy=0;entryX=1;entryY=0.5;entryDx=0;entryDy=0;" edge="1" parent="1" source="Z7pt-hcxb_ayJmEow0XF-60" target="Z7pt-hcxb_ayJmEow0XF-62">
          <mxGeometry relative="1" as="geometry" />
        </mxCell>
        <mxCell id="Z7pt-hcxb_ayJmEow0XF-60" value="" style="ellipse;whiteSpace=wrap;html=1;aspect=fixed;" vertex="1" parent="1">
          <mxGeometry x="1290" y="940" width="50" height="50" as="geometry" />
        </mxCell>
        <mxCell id="Z7pt-hcxb_ayJmEow0XF-61" style="rounded=0;orthogonalLoop=1;jettySize=auto;html=1;exitX=1;exitY=0;exitDx=0;exitDy=0;entryX=0;entryY=1;entryDx=0;entryDy=0;" edge="1" parent="1" source="Z7pt-hcxb_ayJmEow0XF-62" target="Z7pt-hcxb_ayJmEow0XF-58">
          <mxGeometry relative="1" as="geometry" />
        </mxCell>
        <mxCell id="Z7pt-hcxb_ayJmEow0XF-62" value="" style="ellipse;whiteSpace=wrap;html=1;aspect=fixed;" vertex="1" parent="1">
          <mxGeometry x="1120" y="960" width="50" height="50" as="geometry" />
        </mxCell>
        <mxCell id="Z7pt-hcxb_ayJmEow0XF-63" style="rounded=0;orthogonalLoop=1;jettySize=auto;html=1;exitX=1;exitY=0.5;exitDx=0;exitDy=0;entryX=0;entryY=0.5;entryDx=0;entryDy=0;fillColor=#fff2cc;strokeColor=#d6b656;" edge="1" parent="1" source="Z7pt-hcxb_ayJmEow0XF-64" target="Z7pt-hcxb_ayJmEow0XF-56">
          <mxGeometry relative="1" as="geometry" />
        </mxCell>
        <mxCell id="Z7pt-hcxb_ayJmEow0XF-64" value="" style="ellipse;whiteSpace=wrap;html=1;aspect=fixed;fillColor=#fff2cc;strokeColor=#d6b656;" vertex="1" parent="1">
          <mxGeometry x="1260" y="940" width="50" height="50" as="geometry" />
        </mxCell>
        <mxCell id="Z7pt-hcxb_ayJmEow0XF-65" value="把头缠到环里就能理解了" style="text;html=1;align=center;verticalAlign=middle;resizable=0;points=[];autosize=1;strokeColor=none;fillColor=none;" vertex="1" parent="1">
          <mxGeometry x="850" y="898" width="160" height="30" as="geometry" />
        </mxCell>
        <mxCell id="Z7pt-hcxb_ayJmEow0XF-69" value="" style="endArrow=classic;html=1;rounded=0;entryX=0.969;entryY=1.067;entryDx=0;entryDy=0;entryPerimeter=0;" edge="1" parent="1" target="Z7pt-hcxb_ayJmEow0XF-65">
          <mxGeometry width="50" height="50" relative="1" as="geometry">
            <mxPoint x="860" y="928" as="sourcePoint" />
            <mxPoint x="910" y="878" as="targetPoint" />
          </mxGeometry>
        </mxCell>
      </root>
    </mxGraphModel>
  </diagram>
</mxfile>
